<svg width="24" height="24" viewBox="0 0 24 24" fill="none" xmlns="http://www.w3.org/2000/svg">
<path d="M7.49902 2.99023C4.46142 2.99023 1.99902 5.45224 1.99902 8.49024C1.99902 11.6742 3.81252 14.6782 6.81152 17.4282C7.83512 18.3662 8.93723 19.1892 10.0302 19.9282C10.4133 20.1862 10.7716 20.4203 11.0928 20.6153C11.2886 20.7343 11.4177 20.8203 11.499 20.8653C11.801 21.0333 12.197 21.0333 12.499 20.8653C12.5803 20.8203 12.7094 20.7343 12.9052 20.6153C13.2264 20.4203 13.5847 20.1862 13.9678 19.9282C15.0608 19.1892 16.1629 18.3662 17.1865 17.4282C20.1855 14.6782 21.999 11.6742 21.999 8.49024C21.999 5.45224 19.5366 2.99023 16.499 2.99023C14.7738 2.99023 13.0894 3.93025 12.0302 5.30225C10.9974 3.90625 9.31893 2.99023 7.49902 2.99023ZM7.49902 4.99024C8.71292 4.99024 9.84653 5.60625 10.499 6.55225C10.5624 6.64425 11.0623 7.37925 11.1552 7.52125C11.5421 8.11425 12.4053 8.13226 12.8115 7.55225C12.9103 7.41125 13.4306 6.67923 13.499 6.58423C14.1801 5.63223 15.3722 4.99024 16.499 4.99024C18.432 4.99024 19.999 6.55724 19.999 8.49024C19.999 10.9932 18.4375 13.5202 15.8115 15.9282C14.8663 16.7942 13.8591 17.5843 12.8428 18.2713C12.5355 18.4793 12.2614 18.6413 11.999 18.8023C11.7366 18.6413 11.4625 18.4793 11.1552 18.2713C10.1389 17.5843 9.13173 16.7942 8.18652 15.9282C5.56052 13.5202 3.99902 10.9932 3.99902 8.49024C3.99902 6.55724 5.56602 4.99024 7.49902 4.99024Z" fill="#686868"/>
</svg>
